<?xml version="1.0" standalone="no"?>
<!DOCTYPE svg PUBLIC "-//W3C//DTD SVG 20010904//EN"
 "http://www.w3.org/TR/2001/REC-SVG-20010904/DTD/svg10.dtd">
<svg version="1.0" xmlns="http://www.w3.org/2000/svg"
 width="735.000000pt" height="587.000000pt" viewBox="0 0 735.000000 587.000000"
 preserveAspectRatio="xMidYMid meet">

<g transform="translate(0.000000,587.000000) scale(0.100000,-0.100000)"
fill="#000000" stroke="none">
<path d="M3125 4805 c-412 -239 -861 -499 -997 -577 l-247 -143 0 -530 0 -530
803 -463 c442 -254 809 -462 815 -462 6 0 97 50 202 111 105 61 198 108 205
105 8 -3 98 -53 199 -111 102 -58 189 -105 194 -105 7 0 180 100 1066 615
l140 81 0 759 0 758 -570 329 c-984 568 -1037 598 -1048 598 -7 0 -349 -196
-762 -435z m1545 -61 c418 -242 760 -441 760 -444 0 -3 -82 -52 -183 -110
-107 -62 -182 -111 -182 -120 0 -9 75 -58 183 -120 100 -57 182 -107 182 -111
0 -8 -1117 -659 -1130 -659 -6 0 -96 50 -200 110 -104 61 -194 110 -200 110
-6 0 -97 -50 -201 -111 -104 -61 -196 -109 -204 -107 -18 4 -1535 881 -1535
888 0 13 1917 1120 1932 1116 10 -2 359 -201 778 -442z m800 -674 c0 -104 -2
-190 -5 -190 -10 0 -325 185 -325 190 0 6 311 189 323 190 4 0 7 -85 7 -190z
m-2927 -406 c331 -191 674 -388 762 -439 l160 -93 3 -481 c1 -264 1 -481 -1
-481 -2 0 -154 87 -338 193 -184 106 -529 305 -766 441 l-433 248 0 479 c0
264 2 479 5 479 3 0 276 -156 608 -346z m2925 -355 l-3 -491 -565 -329 c-311
-181 -568 -329 -572 -329 -5 0 -8 220 -8 489 l0 489 568 330 c312 182 570 331
575 331 4 1 6 -220 5 -490z m-1588 -458 l0 -490 -97 -57 c-54 -31 -135 -79
-180 -105 l-83 -49 0 494 0 493 173 101 c94 55 175 101 180 101 4 1 7 -219 7
-488z m222 375 l163 -94 3 -481 c1 -265 -1 -480 -5 -478 -5 2 -81 46 -170 97
l-163 93 0 478 c0 264 2 479 4 479 2 0 78 -42 168 -94z"/>
<path d="M3285 4440 c-434 -252 -601 -355 -603 -369 -3 -15 35 -41 200 -135
112 -64 210 -116 219 -116 15 0 1165 663 1204 694 l20 16 -20 16 c-27 21 -406
244 -414 244 -3 -1 -276 -158 -606 -350z m583 74 l-3 -207 -375 -218 c-206
-120 -381 -219 -389 -219 -15 0 -351 191 -351 200 0 6 1100 648 1113 649 4 1
6 -92 5 -205z m244 86 c84 -49 114 -71 105 -77 -9 -8 -229 -136 -289 -170 -5
-2 -8 78 -8 177 l0 182 38 -22 c20 -13 90 -53 154 -90z"/>
<path d="M2505 1407 c-3 -6 -4 -188 -3 -402 l3 -390 132 -3 c130 -3 132 -2
135 20 2 14 12 24 28 28 18 4 26 13 28 33 3 21 9 27 28 27 22 0 24 4 24 50 0
46 2 50 24 50 l25 0 3 133 c2 72 2 158 0 189 -3 50 -6 57 -25 60 -19 3 -22 10
-25 56 -3 48 -5 52 -28 52 -19 0 -24 5 -24 25 0 20 -5 25 -24 25 -18 0 -25 7
-29 30 l-6 30 -131 0 c-95 0 -132 -3 -135 -13z m213 -134 c2 -17 10 -23 27
-23 22 0 24 -5 27 -52 3 -46 6 -53 26 -56 22 -3 22 -6 22 -133 l0 -129 -25 0
c-23 0 -25 -3 -25 -50 0 -47 -2 -50 -25 -50 -20 0 -25 -5 -25 -24 0 -20 -6
-25 -40 -31 -21 -4 -44 -4 -50 0 -6 4 -10 105 -10 291 l0 285 48 -3 c40 -3 47
-6 50 -25z"/>
<path d="M3265 1405 c-3 -8 -7 -22 -10 -30 -2 -8 -13 -15 -24 -15 -13 0 -21
-8 -23 -22 -2 -14 -12 -24 -28 -28 l-25 -6 -3 -292 -2 -292 25 0 c20 0 27 -6
32 -30 4 -23 11 -30 29 -30 19 0 24 -5 24 -25 l0 -26 108 3 c102 3 107 4 110
26 3 16 10 22 28 22 20 0 24 5 24 30 0 25 4 30 25 30 l25 0 0 295 0 295 -25 0
c-20 0 -25 5 -25 25 0 20 -5 25 -24 25 -19 0 -25 6 -28 28 l-3 27 -103 3 c-85
2 -103 0 -107 -13z m155 -130 c0 -20 5 -25 25 -25 l25 0 0 -235 0 -235 -24 0
c-19 0 -25 -6 -28 -27 -3 -26 -6 -28 -48 -28 -39 0 -45 3 -50 25 -4 18 -14 26
-33 28 l-27 3 2 232 3 231 25 6 c16 4 26 14 28 28 3 19 9 22 53 22 46 0 49 -2
49 -25z"/>
<path d="M3807 1414 c-4 -4 -7 -187 -7 -406 l0 -398 55 0 55 0 2 293 3 292 23
3 c21 3 22 0 22 -52 l0 -56 54 0 55 0 3 53 c3 45 6 52 26 55 l22 3 0 -295 0
-296 55 0 55 0 -2 403 -3 402 -50 0 c-44 0 -50 -2 -55 -25 -4 -16 -14 -26 -27
-28 -14 -2 -23 -12 -25 -25 -3 -19 -10 -22 -50 -25 -42 -3 -47 -1 -50 20 -2
14 -12 24 -28 28 -15 4 -26 15 -30 30 -5 21 -12 25 -51 28 -25 2 -48 0 -52 -4z"/>
<path d="M4457 1414 c-4 -4 -7 -162 -7 -350 l0 -343 22 -3 c14 -2 24 -12 28
-28 4 -16 14 -26 27 -28 14 -2 23 -12 25 -25 3 -21 9 -22 111 -25 l107 -3 0
26 c0 20 5 25 25 25 20 0 27 6 32 30 4 23 11 30 29 30 l24 0 -2 348 -3 347
-52 3 c-45 3 -53 0 -53 -15 0 -10 -2 -153 -3 -318 l-2 -299 -25 -6 c-15 -4
-26 -15 -30 -30 -5 -22 -11 -25 -50 -25 -39 0 -45 3 -50 25 -4 16 -14 26 -28
28 l-22 3 -2 317 -3 317 -45 3 c-25 2 -49 0 -53 -4z"/>
</g>
</svg>
